<svg id="Layer_1" data-name="Layer 1" xmlns="http://www.w3.org/2000/svg" viewBox="0 0 1241.38 233.23"><defs><style>.cls-1{fill:#ff4438;}.cls-2{fill:#fff;stroke:#000;stroke-width:2px;}.cls-2,.cls-3{stroke-miterlimit:10;}.cls-3{fill:none;stroke:#231f20;stroke-dasharray:4.76 4.76;}</style></defs><polygon class="cls-1" points="11.78 104.09 4.6 118.09 11.78 130.86 107.29 224.55 116.77 229.01 128.6 221.87 225.35 129.08 225.35 118.09 218.39 101.03 128.6 13.09 114.98 8.63 105.5 8.63 11.78 104.09"/><path class="cls-2" d="M125.1,24.41a10.33,10.33,0,0,0-7.36,3.05L26.56,118.64a10.44,10.44,0,0,0,0,14.72l91.18,91.18a10.41,10.41,0,0,0,14.72,0l91.18-91.18a10.41,10.41,0,0,0,0-14.72L132.46,27.46a10.33,10.33,0,0,0-7.36-3.05m0,217.2a24.27,24.27,0,0,1-17.27-7.15L16.64,143.27a24.46,24.46,0,0,1,0-34.54l91.19-91.19a24.43,24.43,0,0,1,34.54,0l91.19,91.19a24.43,24.43,0,0,1,0,34.54l-91.19,91.19a24.26,24.26,0,0,1-17.27,7.15" transform="translate(-8.5 -9.39)"/><polygon class="cls-2" points="235.35 32.24 115.69 123.48 86.51 97.27 65.74 116.55 116.19 166.99 235.35 32.24"/><path d="M324.32,70.35a3.67,3.67,0,0,1,.92-2.64,3.25,3.25,0,0,1,2.2-1H403.9a3.49,3.49,0,0,1,2.76,1,4.11,4.11,0,0,1,.92,2.79V90.25a4.19,4.19,0,0,1-1,2.6,3.3,3.3,0,0,1-2.79,1.23H355.24v24.77h35.88a4,4,0,0,1,2.56.84,3.29,3.29,0,0,1,1,2.68v19.09a4.37,4.37,0,0,1-.91,2.6,3,3,0,0,1-2.52,1.24h-36v36.59c0,2.3-1.23,3.44-3.67,3.44H327.2a3,3,0,0,1-2.88-3.35Z" transform="translate(-8.5 -9.39)"/><path d="M462.06,104c-1,2.71-2,5.65-3.08,8.79s-2.07,6.31-3.07,9.51-2,6.35-3.08,9.46-2.07,6-3.08,8.76h24.53Zm-14.54-34.2a2.38,2.38,0,0,1,.51-1,6,6,0,0,1,1.08-1,5.51,5.51,0,0,1,1.36-.75,3.72,3.72,0,0,1,1.36-.28h20.45a3.44,3.44,0,0,1,2.32.83A10.67,10.67,0,0,1,476,69l2,4.56L520,181.73a2.38,2.38,0,0,1-.24,2.6,3.89,3.89,0,0,1-3,1H493.78a5.08,5.08,0,0,1-2.84-.67,4.47,4.47,0,0,1-1.56-2.28c-1.07-2.72-2.1-5.42-3.11-8.12s-2-5.39-3-8.11H440.8c-1,2.72-2,5.42-3.07,8.11s-2.07,5.4-3.08,8.12a4,4,0,0,1-4.08,3H407a3.89,3.89,0,0,1-2.51-.8,1.87,1.87,0,0,1-.36-2.39Z" transform="translate(-8.5 -9.39)"/><path d="M536.21,70.19a3.66,3.66,0,0,1,.88-2.48,3.24,3.24,0,0,1,2.63-1h23.49a4.5,4.5,0,0,1,2.56.95,3,3,0,0,1,1.36,2.56V181.81c0,2.36-1.31,3.52-3.92,3.52H539.72c-2.34,0-3.51-1.16-3.51-3.52Z" transform="translate(-8.5 -9.39)"/><path d="M651.41,105.83a13.78,13.78,0,0,0-.88-4.8,15.82,15.82,0,0,0-2.48-4.4,14.7,14.7,0,0,0-3.83-3.35,13.06,13.06,0,0,0-5-1.75c-1.48-.12-2.88-.2-4.19-.29s-2.73-.11-4.27-.11h-11v29.32h14.7c1,0,1.81,0,2.56-.08s1.57-.13,2.47-.24a12.54,12.54,0,0,0,5-1.64,13.35,13.35,0,0,0,3.76-3.27,14.82,14.82,0,0,0,2.32-4.4,16.27,16.27,0,0,0,.79-5M588.84,70.35a3.86,3.86,0,0,1,.89-2.67,3.3,3.3,0,0,1,2.63-1H644a38.81,38.81,0,0,1,15.42,3.08A40.11,40.11,0,0,1,672,78.1a39.1,39.1,0,0,1,8.43,12.35,37.32,37.32,0,0,1,3.07,15.06A35.85,35.85,0,0,1,682,115.85a38.87,38.87,0,0,1-4.12,9.19,39.35,39.35,0,0,1-6.27,7.76,41.65,41.65,0,0,1-8,5.95l20.53,38.67q.55,1.13,1.44,2.64a5.42,5.42,0,0,1,.88,2.63,2.36,2.36,0,0,1-.84,2,3.54,3.54,0,0,1-2.28.68H656a4,4,0,0,1-2.44-.8,3.6,3.6,0,0,1-1.4-2.15l-19.41-36.52h-13v36c0,2.3-1.22,3.44-3.68,3.44H592.36a3.76,3.76,0,0,1-2.56-.84,3.29,3.29,0,0,1-1-2.6Z" transform="translate(-8.5 -9.39)"/><path d="M831,105.35a14.36,14.36,0,0,0-.85-4.79,13.32,13.32,0,0,0-2.43-4.28,13.14,13.14,0,0,0-3.87-3.08A11,11,0,0,0,818.72,92H801.78v26.68h16.94a11.47,11.47,0,0,0,5.19-1.15,12.27,12.27,0,0,0,3.88-3,13.09,13.09,0,0,0,2.39-4.24,14.84,14.84,0,0,0,.85-5m-60.17-35a3.86,3.86,0,0,1,.88-2.67,3.3,3.3,0,0,1,2.63-1h51.06a34.81,34.81,0,0,1,10.39,1.52,35.34,35.34,0,0,1,16.3,10.59,40.51,40.51,0,0,1,5.55,8,39.73,39.73,0,0,1,3.48,9.07,39.5,39.5,0,0,1-1.4,23.69,38.56,38.56,0,0,1-7.39,12.23,37.63,37.63,0,0,1-11.51,8.67A33.94,33.94,0,0,1,826,143.86H801.78v38c0,2.3-1.23,3.44-3.67,3.44H774.37a3.73,3.73,0,0,1-2.55-.84,3.25,3.25,0,0,1-1-2.6Z" transform="translate(-8.5 -9.39)"/><path d="M939.63,105.83a13.78,13.78,0,0,0-.88-4.8,15.79,15.79,0,0,0-2.47-4.4,14.79,14.79,0,0,0-3.85-3.35,13,13,0,0,0-4.94-1.75c-1.49-.12-2.89-.2-4.2-.29s-2.73-.11-4.28-.11H908v29.32h14.7c1,0,1.81,0,2.56-.08s1.57-.13,2.48-.24a12.55,12.55,0,0,0,5-1.64,13.17,13.17,0,0,0,3.75-3.27,14.38,14.38,0,0,0,2.32-4.4,16,16,0,0,0,.8-5M877.07,70.35a3.86,3.86,0,0,1,.88-2.67,3.3,3.3,0,0,1,2.63-1h51.61a38.83,38.83,0,0,1,15.43,3.08,40.34,40.34,0,0,1,12.55,8.35,39.1,39.1,0,0,1,8.43,12.35,37.33,37.33,0,0,1,3.08,15.06,35.85,35.85,0,0,1-1.48,10.34,38.87,38.87,0,0,1-4.12,9.19,39.35,39.35,0,0,1-6.27,7.76,41.65,41.65,0,0,1-7.95,5.95l20.53,38.67q.55,1.13,1.44,2.64a5.53,5.53,0,0,1,.88,2.63,2.36,2.36,0,0,1-.84,2,3.54,3.54,0,0,1-2.28.68h-27.4a4,4,0,0,1-2.44-.8,3.6,3.6,0,0,1-1.4-2.15l-19.42-36.52H908v36c0,2.3-1.23,3.44-3.67,3.44H880.58a3.76,3.76,0,0,1-2.56-.84,3.28,3.28,0,0,1-.95-2.6Z" transform="translate(-8.5 -9.39)"/><path d="M992.43,70.19a3.71,3.71,0,0,1,.88-2.48,3.25,3.25,0,0,1,2.64-1h23.49a4.44,4.44,0,0,1,2.55.95,3,3,0,0,1,1.36,2.56V181.81c0,2.36-1.31,3.52-3.91,3.52H996c-2.35,0-3.52-1.16-3.52-3.52Z" transform="translate(-8.5 -9.39)"/><path d="M1139.61,75.3a5.11,5.11,0,0,1,2,2.08,3.34,3.34,0,0,1-.24,3l-13.51,19.17a3.1,3.1,0,0,1-1.88,1.56,3.46,3.46,0,0,1-2.43-.68,30.58,30.58,0,0,0-18.62-6.15,28.92,28.92,0,0,0-21.57,9.27,31.46,31.46,0,0,0-6.24,10.07,35,35,0,0,0,0,24.57,31.09,31.09,0,0,0,6.24,10,29,29,0,0,0,21.57,9.22,30.94,30.94,0,0,0,18.78-6.23,3.68,3.68,0,0,1,2.39-.72,3.34,3.34,0,0,1,1.93,1.44l13.66,19.66a3.17,3.17,0,0,1,.24,2.95,5.12,5.12,0,0,1-2,2,63.09,63.09,0,0,1-16.18,7.79,59.85,59.85,0,0,1-18.26,2.75,60.37,60.37,0,0,1-30.84-8.3,61.81,61.81,0,0,1-21.89-21.85,59.56,59.56,0,0,1-6.16-14.54,61.45,61.45,0,0,1,15.7-59.57,58.88,58.88,0,0,1,12.35-9.55,62.39,62.39,0,0,1,14.58-6.16,62.1,62.1,0,0,1,34.36.48,62.28,62.28,0,0,1,16,7.71" transform="translate(-8.5 -9.39)"/><path d="M1161.66,70.35a3.78,3.78,0,0,1,.92-2.67,3.32,3.32,0,0,1,2.59-1h79.27a3.52,3.52,0,0,1,2.72,1,3.94,3.94,0,0,1,1,2.79V90.25a4.19,4.19,0,0,1-1,2.6,3.31,3.31,0,0,1-2.8,1.23h-51.78V113.9h40a4.22,4.22,0,0,1,2.52.72,2.74,2.74,0,0,1,1,2.39v17.26a3.28,3.28,0,0,1-.88,2.16,3.17,3.17,0,0,1-2.56,1h-40v20.46h53.7q3.6,0,3.6,3.66v20.08a2,2,0,0,1-.64,1.43c-.22,1.49-1.31,2.23-3.28,2.23h-80.79a3.72,3.72,0,0,1-2.55-.84,3.25,3.25,0,0,1-1-2.6Z" transform="translate(-8.5 -9.39)"/><path class="cls-3" d="M262.71,66.51" transform="translate(-8.5 -9.39)"/></svg>